<svg width="20" height="21" viewBox="0 0 20 21" fill="none" xmlns="http://www.w3.org/2000/svg">
<path d="M10 0.540039C7.28417 0.540039 6.94362 0.551561 5.877 0.600207C4.81262 0.648764 4.08569 0.817835 3.4496 1.065C2.79201 1.32055 2.23434 1.66251 1.67842 2.21843C1.12247 2.77434 0.780514 3.33208 0.524987 3.98967C0.277766 4.62573 0.108755 5.35266 0.060138 6.41704C0.0114917 7.48366 0 7.82421 0 10.5401C0 13.2559 0.0114917 13.5964 0.060138 14.663C0.108755 15.7274 0.277766 16.4543 0.524987 17.0904C0.780544 17.748 1.1225 18.3057 1.67842 18.8617C2.23437 19.4176 2.79201 19.7595 3.4496 20.0151C4.08569 20.2622 4.81262 20.4313 5.877 20.4799C6.94362 20.5285 7.28417 20.54 10 20.54C12.7158 20.54 13.0564 20.5285 14.123 20.4799C15.1874 20.4313 15.9143 20.2622 16.5504 20.0151C17.208 19.7595 17.7656 19.4176 18.3216 18.8617C18.8775 18.3057 19.2195 17.748 19.475 17.0904C19.7222 16.4543 19.8913 15.7274 19.9398 14.663C19.9885 13.5964 20 13.2559 20 10.5401C20 7.82421 19.9885 7.48366 19.9398 6.41704C19.8913 5.35266 19.7222 4.62573 19.475 3.98967C19.2195 3.33208 18.8775 2.77434 18.3216 2.21843C17.7656 1.66251 17.208 1.32055 16.5504 1.065C15.9143 0.817835 15.1874 0.648764 14.123 0.600207C13.0564 0.551561 12.7158 0.540039 10 0.540039ZM10 2.34183C12.6701 2.34183 12.9864 2.35204 14.0409 2.40015C15.0159 2.4446 15.5454 2.60751 15.8977 2.74445C16.3645 2.92588 16.6976 3.14256 17.0475 3.49249C17.3975 3.84242 17.6142 4.17556 17.7956 4.64231C17.9325 4.99469 18.0954 5.5242 18.1399 6.49918C18.188 7.55365 18.1982 7.86994 18.1982 10.54C18.1982 13.2101 18.188 13.5264 18.1399 14.5809C18.0954 15.5559 17.9325 16.0854 17.7956 16.4377C17.6142 16.9045 17.3975 17.2377 17.0475 17.5876C16.6976 17.9375 16.3645 18.1542 15.8977 18.3356C15.5454 18.4726 15.0158 18.6355 14.0409 18.6799C12.9866 18.728 12.6703 18.7383 10 18.7383C7.32969 18.7383 7.01349 18.728 5.95914 18.6799C4.98413 18.6355 4.45465 18.4726 4.10231 18.3356C3.63549 18.1542 3.30238 17.9375 2.95248 17.5876C2.60255 17.2377 2.38584 16.9045 2.20442 16.4378C2.06747 16.0854 1.90459 15.5559 1.86011 14.5809C1.812 13.5264 1.80179 13.2101 1.80179 10.54C1.80179 7.86994 1.812 7.55365 1.86011 6.49918C1.90459 5.52417 2.06747 4.99469 2.20442 4.64234C2.38584 4.17553 2.60255 3.84242 2.95245 3.49252C3.30238 3.14256 3.63552 2.92588 4.10228 2.74445C4.45465 2.60751 4.98416 2.4446 5.95914 2.40015C7.01361 2.35204 7.3299 2.34183 10 2.34183" fill="#45A7DE"/>
<path d="M9.99844 13.8733C8.15744 13.8733 6.66507 12.381 6.66507 10.54C6.66507 8.69903 8.15744 7.20665 9.99844 7.20665C11.8394 7.20665 13.3318 8.69903 13.3318 10.54C13.3318 12.381 11.8394 13.8733 9.99844 13.8733ZM9.99844 5.40487C7.16234 5.40487 4.86328 7.70392 4.86328 10.54C4.86328 13.3761 7.16234 15.6751 9.99844 15.6751C12.8345 15.6751 15.1335 13.3761 15.1335 10.54C15.1335 7.70392 12.8345 5.40487 9.99844 5.40487ZM16.5365 5.20197C16.5365 5.86474 15.9992 6.40197 15.3364 6.40197C14.6737 6.40197 14.1364 5.86474 14.1364 5.20197C14.1364 4.53924 14.6737 4.00195 15.3364 4.00195C15.9992 4.00195 16.5365 4.53924 16.5365 5.20197Z" fill="#45A7DE"/>
</svg>
