<svg width="18" height="16" viewBox="0 0 18 16" fill="none" xmlns="http://www.w3.org/2000/svg">
<path d="M16.258 0.585289C16.258 0.585289 17.8769 -0.0459611 17.742 1.48708C17.697 2.11833 17.2923 4.32771 16.9775 6.71746L15.8983 13.7965C15.8983 13.7965 15.8084 14.8335 14.9989 15.0139C14.1895 15.1943 12.9753 14.3827 12.7505 14.2023C12.5706 14.067 9.37783 12.038 8.25358 11.046C7.93879 10.7755 7.57904 10.2344 8.29854 9.60317L13.0203 5.09425C13.5599 4.55317 14.0995 3.29067 11.8511 4.82371L5.55546 9.10721C5.55546 9.10721 4.83596 9.55808 3.48692 9.15229L0.563925 8.2505C0.563925 8.2505 -0.515329 7.57417 1.3284 6.89779C5.82529 4.77858 11.3565 2.61429 16.258 0.585289Z" fill="#45A7DE"/>
</svg>
