<svg width="20" height="21" viewBox="0 0 20 21" fill="none" xmlns="http://www.w3.org/2000/svg">
<g clip-path="url(#clip0_22016_1013)">
<path d="M14.8003 12.0322C14.7613 12.0135 13.3033 11.2955 13.0442 11.2023C12.9384 11.1643 12.8251 11.1272 12.7046 11.1272C12.5077 11.1272 12.3423 11.2254 12.2135 11.4181C12.0678 11.6346 11.6269 12.15 11.4907 12.3039C11.4729 12.3243 11.4486 12.3485 11.434 12.3485C11.421 12.3485 11.1953 12.2556 11.127 12.2259C9.56293 11.5465 8.37572 9.91269 8.21293 9.63717C8.18969 9.59756 8.18871 9.57958 8.18852 9.57958C8.19423 9.5586 8.24683 9.50587 8.27397 9.47867C8.35339 9.4001 8.43943 9.29652 8.52267 9.19633C8.56209 9.14886 8.60157 9.10133 8.64033 9.05652C8.76111 8.916 8.81488 8.80691 8.87722 8.68055L8.90988 8.6149C9.06209 8.3125 8.93209 8.0573 8.89007 7.9749C8.85559 7.90594 8.23995 6.4201 8.17449 6.26399C8.01709 5.8873 7.8091 5.71191 7.52008 5.71191C7.49326 5.71191 7.52008 5.71191 7.40761 5.71665C7.27066 5.72243 6.52488 5.82062 6.19514 6.02847C5.84546 6.24893 5.25391 6.95165 5.25391 8.1875C5.25391 9.29977 5.95975 10.35 6.2628 10.7494C6.27033 10.7594 6.28417 10.7799 6.30423 10.8093C7.46482 12.5042 8.91163 13.7603 10.3783 14.3462C11.7903 14.9102 12.459 14.9754 12.8391 14.9754H12.8392C12.9989 14.9754 13.1268 14.9629 13.2396 14.9518L13.3111 14.945C13.7989 14.9017 14.8709 14.3463 15.1147 13.6687C15.3068 13.135 15.3574 12.5518 15.2296 12.3402C15.1421 12.1963 14.9912 12.1239 14.8003 12.0322Z" fill="#45A7DE"/>
<path d="M10.1775 0.540039C4.76089 0.540039 0.354141 4.91368 0.354141 10.2896C0.354141 12.0284 0.819465 13.7304 1.70096 15.22L0.0137512 20.1969C-0.0176774 20.2897 0.0056992 20.3923 0.0743356 20.4622C0.123881 20.5128 0.191089 20.54 0.259725 20.54C0.286024 20.54 0.312517 20.5361 0.338362 20.5278L5.52797 18.8787C6.9481 19.6375 8.55317 20.038 10.1776 20.038C15.5937 20.0381 20 15.6649 20 10.2896C20 4.91368 15.5937 0.540039 10.1775 0.540039ZM10.1775 18.0072C8.64901 18.0072 7.16856 17.5658 5.89596 16.7308C5.85317 16.7026 5.80349 16.6882 5.75349 16.6882C5.72706 16.6882 5.70057 16.6922 5.67479 16.7004L3.07511 17.5268L3.91434 15.0509C3.94148 14.9708 3.92791 14.8824 3.87791 14.8141C2.90882 13.4899 2.39654 11.9254 2.39654 10.2896C2.39654 6.03355 5.88706 2.57095 10.1775 2.57095C14.4673 2.57095 17.9575 6.03355 17.9575 10.2896C17.9575 14.5451 14.4675 18.0072 10.1775 18.0072Z" fill="#45A7DE"/>
</g>
<defs>
<clipPath id="clip0_22016_1013">
<rect width="20" height="20" fill="white" transform="translate(0 0.540039)"/>
</clipPath>
</defs>
</svg>
